<?xml version="1.0" standalone="no"?>
<!DOCTYPE svg PUBLIC "-//W3C//DTD SVG 20010904//EN"
 "http://www.w3.org/TR/2001/REC-SVG-20010904/DTD/svg10.dtd">
<svg version="1.0" xmlns="http://www.w3.org/2000/svg"
 width="192.000000pt" height="192.000000pt" viewBox="0 0 192.000000 192.000000"
 preserveAspectRatio="xMidYMid meet">
<metadata>
Created by potrace 1.11, written by Peter Selinger 2001-2013
</metadata>
<g transform="translate(0.000000,192.000000) scale(0.100000,-0.100000)"
fill="#000000" stroke="none">
<path d="M551 1891 c-18 -16 -31 -32 -30 -37 4 -16 -14 -49 -41 -74 -23 -22
-42 -52 -44 -72 -1 -3 -4 -9 -7 -13 -4 -3 -3 -22 1 -42 9 -36 4 -63 -12 -74
-11 -7 -13 -57 -4 -87 4 -13 3 -22 -3 -22 -13 0 -25 -65 -15 -81 4 -7 9 -26
11 -42 3 -31 17 -49 47 -60 14 -6 16 -10 7 -21 -6 -7 -8 -16 -4 -19 3 -4 1 -7
-6 -7 -7 0 -9 -4 -6 -10 3 -5 2 -10 -4 -10 -6 0 -8 -7 -5 -15 4 -8 1 -15 -6
-15 -6 0 -8 -5 -5 -10 4 -6 3 -16 -2 -23 -13 -18 -16 -74 -4 -82 13 -8 15 -45
2 -45 -10 0 -3 -38 9 -55 5 -5 6 -25 4 -42 -2 -18 1 -33 6 -33 6 0 10 -7 10
-16 0 -8 5 -12 10 -9 6 3 10 -4 10 -16 0 -31 41 -65 73 -60 4 0 7 -4 7 -10 0
-8 5 -7 15 1 13 11 14 10 10 -3 -4 -8 -2 -18 4 -22 7 -4 8 0 4 11 -4 12 -3 15
5 10 8 -5 10 -2 6 8 -3 9 -1 16 5 16 6 0 11 -4 11 -10 0 -5 5 -10 11 -10 6 0
8 7 5 16 -3 8 -2 13 3 9 5 -3 11 -2 14 2 2 5 3 3 1 -2 -1 -6 6 -11 16 -11 10
0 17 3 14 7 -2 4 3 9 11 13 8 3 22 20 30 38 8 18 13 25 10 16 -2 -10 0 -18 5
-18 6 0 10 5 10 11 0 5 4 8 9 5 5 -4 7 4 4 16 -4 19 -3 20 6 8 9 -13 11 -13
11 3 0 11 8 17 24 17 14 0 27 -4 30 -8 5 -9 17 -59 18 -79 1 -7 6 -13 12 -13
6 0 4 -5 -4 -10 -11 -7 -11 -10 -2 -10 7 0 11 -4 8 -9 -3 -5 1 -14 9 -21 8 -7
25 -30 37 -51 12 -22 32 -46 45 -55 15 -9 21 -20 16 -27 -4 -7 -8 -15 -9 -19
-1 -5 -2 -11 -3 -15 -1 -5 -8 1 -16 11 -8 11 -15 16 -15 12 0 -4 -7 -1 -15 8
-35 35 -98 -12 -140 -105 -19 -44 -31 -59 -46 -59 -12 0 -17 4 -13 11 11 18
-17 60 -37 54 -11 -4 -19 1 -23 13 -3 10 -26 26 -51 37 -32 12 -42 21 -33 27
8 4 9 8 2 8 -6 0 -10 10 -9 23 6 53 -49 158 -74 142 -5 -3 -11 -1 -13 5 -8 23
-108 -30 -108 -57 0 -7 -5 -13 -12 -13 -6 0 -8 -3 -5 -6 4 -4 -2 -23 -12 -43
-28 -53 -52 -109 -57 -134 -3 -12 -6 -26 -7 -32 -2 -5 -5 -14 -9 -20 -3 -5 -9
-26 -12 -45 -3 -19 -9 -48 -12 -65 -26 -128 11 -229 95 -256 20 -6 41 -16 47
-21 8 -5 14 -3 18 7 4 11 2 14 -7 9 -8 -5 -8 -2 2 9 7 9 17 15 21 12 5 -3 11
-1 15 5 3 5 15 10 26 10 10 0 19 5 19 11 0 5 -4 8 -9 4 -5 -3 -13 0 -17 6 -4
8 -3 9 4 5 7 -4 12 -1 12 6 0 9 3 9 10 -2 5 -8 10 -11 10 -6 0 5 12 -1 27 -15
15 -13 22 -17 16 -9 -10 13 -8 16 7 16 10 0 16 -4 14 -8 -3 -4 0 -8 5 -8 10 0
15 14 12 33 0 4 2 6 6 6 5 -1 17 -1 28 0 17 1 18 3 5 11 -12 7 -12 10 -1 10 8
0 11 6 7 16 -4 12 -2 15 9 10 8 -3 15 -1 15 4 0 6 -4 10 -10 10 -5 0 -10 5
-10 11 0 5 5 7 10 4 6 -3 11 0 11 7 1 7 2 18 4 23 1 6 3 17 4 25 2 11 5 10 11
-5 7 -15 9 -16 9 -4 1 9 10 19 22 22 15 4 18 2 10 -7 -8 -9 -7 -13 4 -13 8 0
15 7 15 14 0 8 5 11 10 8 6 -4 8 -11 5 -16 -4 -5 -2 -9 3 -9 6 0 13 -12 16
-26 6 -24 36 -65 36 -49 0 4 7 -1 16 -10 12 -12 19 -13 30 -4 8 6 14 8 14 4 0
-4 7 -2 14 5 16 12 16 7 0 -67 -19 -91 -15 -101 45 -108 31 -4 40 -2 35 6 -4
7 -3 10 2 7 5 -3 15 0 22 8 10 11 10 14 0 14 -9 0 -9 3 2 10 12 8 12 10 1 10
-9 0 -7 5 6 17 10 10 14 15 7 10 -8 -5 -10 0 -6 18 2 14 8 28 13 31 5 3 9 10
9 15 0 6 -5 7 -11 4 -6 -4 -5 2 3 14 7 12 17 21 23 21 5 0 4 4 -4 9 -10 7 -11
12 -1 27 11 18 11 18 5 -1 -5 -15 -3 -17 6 -8 6 6 18 9 25 6 18 -7 46 16 37
30 -3 6 -1 7 6 3 9 -6 9 -11 0 -22 -15 -18 -2 -18 16 0 11 10 11 16 2 26 -9
10 -7 10 13 0 22 -12 23 -11 13 2 -10 12 -10 15 2 15 8 0 15 -4 15 -8 0 -4 11
-6 25 -4 14 1 25 -1 25 -5 0 -5 9 -6 21 -3 11 3 16 9 11 12 -6 3 0 11 14 18
14 6 21 7 18 1 -4 -6 3 -5 15 1 20 11 25 8 22 -12 -1 -5 2 -6 7 -3 5 3 21 7
36 10 36 6 41 12 21 20 -9 3 -14 2 -11 -2 2 -4 -5 -9 -16 -9 -19 -2 -19 -1 -2
11 10 8 24 11 31 9 8 -3 22 2 32 11 10 9 21 13 26 9 4 -5 5 -2 1 5 -6 11 -12
10 -27 -4 -10 -9 -19 -13 -19 -8 1 16 48 45 55 34 4 -6 11 -8 16 -5 5 4 9 1 9
-5 0 -7 6 -10 13 -7 6 2 21 -3 31 -12 13 -11 17 -12 11 -2 -6 11 -2 13 18 9
23 -4 25 -3 16 13 -5 11 -7 20 -4 20 20 5 31 3 37 -6 5 -6 8 -6 8 2 0 7 -8 17
-17 22 -17 10 -17 10 0 11 10 0 20 7 23 15 5 13 9 13 22 3 14 -12 14 -10 3 11
-11 19 -11 22 0 16 9 -6 10 -3 5 10 -5 14 -4 16 7 6 11 -9 17 -8 27 4 7 8 9
15 4 15 -5 0 -2 5 6 11 13 9 12 10 -2 5 -12 -3 -15 -1 -11 9 3 8 8 13 12 11 3
-2 13 3 21 12 13 14 12 15 -3 9 -9 -3 -17 -2 -17 3 0 6 5 10 12 10 6 0 8 3 5
7 -4 3 -1 13 7 22 14 16 16 20 16 42 0 5 4 7 10 4 5 -3 2 8 -8 25 -9 16 -24
32 -33 35 -22 7 -49 -4 -49 -21 0 -8 -4 -14 -9 -14 -11 0 -24 29 -26 57 0 13
-8 31 -18 40 -14 15 -21 16 -37 5 -11 -7 -20 -9 -21 -5 -6 66 -25 73 -115 47
-40 -11 -58 -12 -74 -4 -11 6 -36 10 -55 8 -28 -2 -38 -8 -47 -29 -11 -26 -40
-43 -52 -32 -6 7 32 43 46 43 6 0 8 3 5 6 -4 4 3 20 15 37 20 28 20 30 3 23
-18 -7 -18 -6 0 14 10 11 13 20 7 20 -5 0 -9 8 -8 18 2 9 0 29 -4 43 -6 19 -4
26 6 26 8 0 14 -7 14 -16 0 -14 2 -14 10 -1 6 10 10 11 10 3 0 -15 46 -17 55
-3 3 5 13 10 21 10 8 0 12 -5 9 -10 -4 -6 -11 -7 -17 -4 -7 4 -8 2 -4 -5 6 -9
11 -9 22 0 7 6 11 15 8 20 -3 5 0 9 5 9 6 0 11 4 11 10 0 5 -8 7 -17 5 -10 -3
-7 0 7 7 17 9 25 21 24 36 -1 19 1 20 14 10 13 -11 14 -10 5 7 -11 22 -7 45 9
45 6 0 5 -7 -3 -17 -13 -17 -12 -17 7 0 12 10 21 28 20 40 -1 12 5 27 14 34
12 10 12 12 1 13 -11 0 -11 3 -1 15 6 8 9 19 5 25 -3 5 -1 10 4 10 6 0 11 7
11 16 0 8 4 13 9 9 10 -5 18 13 28 62 8 40 5 66 -10 91 -5 6 -4 12 2 12 6 0 7
7 4 17 -4 10 -2 14 5 9 6 -3 14 -2 17 4 4 6 1 9 -7 8 -8 -2 -13 9 -14 32 -1
59 -4 74 -10 67 -4 -3 -15 0 -26 7 -13 9 -30 11 -56 5 -59 -12 -82 -21 -82
-30 0 -5 -3 -8 -7 -7 -12 4 -73 -26 -73 -34 0 -5 -7 -8 -15 -8 -8 0 -15 -5
-15 -11 0 -5 -4 -8 -9 -4 -5 3 -12 1 -16 -5 -3 -6 -20 -17 -36 -25 -27 -14
-32 -14 -51 0 -13 8 -31 15 -40 15 -21 0 -98 -46 -98 -59 0 -4 -10 -12 -23
-18 -20 -9 -23 -8 -24 10 -1 11 -12 44 -24 74 -21 53 -49 79 -79 75 -8 -1 -19
1 -25 6 -15 10 -56 94 -42 85 6 -3 1 7 -11 24 -12 17 -22 36 -22 42 0 6 -5 11
-11 11 -5 0 -8 4 -4 9 3 5 -1 15 -8 23 -7 7 -20 27 -27 45 -8 17 -18 29 -22
27 -4 -3 -8 1 -8 8 0 8 -10 20 -21 28 -12 8 -27 20 -34 27 -10 9 -19 6 -44
-16z m310 -460 c-1 -2 3 -8 11 -12 10 -7 10 -9 0 -9 -7 0 -10 -5 -6 -12 4 -7
3 -8 -5 -4 -6 4 -9 11 -6 16 3 5 1 11 -5 15 -5 3 -10 16 -10 28 1 22 1 22 12
2 7 -11 11 -22 9 -24z m174 -51 c-3 -5 -12 -10 -18 -10 -7 0 -6 4 3 10 19 12
23 12 15 0z m439 -654 c-3 -9 -10 -16 -15 -16 -4 0 -6 -6 -3 -14 3 -8 0 -17
-7 -22 -7 -4 -10 -3 -5 4 3 5 1 12 -5 14 -6 2 0 15 13 29 25 29 32 30 22 5z
m119 -74 c-10 -15 -25 -40 -33 -55 -7 -15 -19 -26 -26 -23 -8 3 -11 0 -8 -8 2
-7 -4 -22 -15 -34 -15 -18 -20 -20 -24 -7 -4 8 -1 14 5 12 6 -1 15 13 20 31 5
20 13 30 20 26 8 -5 9 -1 5 10 -6 14 -3 17 9 12 14 -5 15 -4 4 9 -9 11 -9 15
-1 15 7 0 9 5 6 11 -4 5 1 19 11 30 9 10 14 19 10 19 -4 0 -4 5 -1 11 5 6 13
3 22 -10 13 -19 12 -24 -4 -49z m-423 4 c0 -3 -4 -8 -10 -11 -5 -3 -10 -1 -10
4 0 6 5 11 10 11 6 0 10 -2 10 -4z m480 -131 c0 -12 -19 -12 -23 0 -4 9 -1 12
9 8 7 -3 14 -7 14 -8z m-1228 -99 c23 -5 27 -11 24 -34 -1 -15 -9 -39 -17 -52
-7 -14 -12 -28 -11 -32 1 -3 -5 -12 -13 -18 -8 -7 -15 -18 -15 -24 0 -6 -9
-17 -20 -24 -17 -10 -20 -10 -20 6 0 10 3 22 7 26 10 10 13 37 3 31 -4 -3 -7
10 -5 27 1 18 8 34 14 36 9 3 9 8 -1 20 -11 13 -11 15 3 10 9 -4 16 -1 16 8 0
7 -4 11 -9 8 -10 -6 -10 -1 -2 21 4 9 10 12 13 7 3 -5 18 -12 33 -16z"/>
<path d="M1565 670 c-3 -6 1 -7 9 -4 18 7 21 14 7 14 -6 0 -13 -4 -16 -10z"/>
<path d="M1685 621 c-3 -5 -2 -12 3 -15 5 -3 9 1 9 9 0 17 -3 19 -12 6z"/>
<path d="M1586 451 c-4 -5 -2 -12 3 -15 5 -4 12 -2 15 3 4 5 2 12 -3 15 -5 4
-12 2 -15 -3z"/>
<path d="M837 203 c3 -7 6 -13 8 -13 2 0 5 6 8 13 3 8 -1 14 -8 14 -7 0 -11
-6 -8 -14z"/>
<path d="M576 172 c-3 -5 1 -9 9 -9 8 0 12 4 9 9 -3 4 -7 8 -9 8 -2 0 -6 -4
-9 -8z"/>
<path d="M426 131 c-4 -5 -2 -12 3 -15 5 -4 12 -2 15 3 4 5 2 12 -3 15 -5 4
-12 2 -15 -3z"/>
</g>
</svg>
