<svg xmlns="http://www.w3.org/2000/svg" xmlns:xlink="http://www.w3.org/1999/xlink" width="14" height="15" viewBox="0 0 14 15">
    <defs>
        <path id="a" d="M0 0h14v15H0z"/>
    </defs>
    <g fill="none" fill-rule="evenodd">
        <mask id="b" fill="#fff">
            <use xlink:href="#a"/>
        </mask>
        <path fill="#919191" d="M12.809 9.83a.435.435 0 0 0-.054.512c0 .003.123.223.138.524.021.41-.168.774-.566 1.085a.438.438 0 0 0-.139.483c0 .003.13.417-.08.81-.203.376-.651.646-1.332.796-.545.122-1.286.144-2.196.07h-.042c-1.936.043-3.894-.22-3.915-.224H4.62l-.304-.037a1.38 1.38 0 0 0 .027-.276v-5.1c0-.136-.021-.267-.057-.39a2.66 2.66 0 0 1 .56-1.075C6.198 5.89 7.52 2.124 7.578 1.96a.412.412 0 0 0 .018-.21c-.052-.351-.034-.78.039-.91.16.004.59.05.849.424.307.442.295 1.233-.036 2.28C7.942 5.142 7.9 5.983 8.3 6.353a.636.636 0 0 0 .657.122c.184-.044.358-.081.524-.11l.04-.009c.924-.21 2.58-.339 3.155.207.488.464.142 1.08.103 1.145a.432.432 0 0 0 .072.546c.003.003.32.313.334.73.012.28-.114.565-.376.848zm-11.556 4.2a.45.45 0 0 1-.44-.457v-5.1a.45.45 0 0 1 .44-.459H3.09a.45.45 0 0 1 .44.458v5.098a.45.45 0 0 1-.44.458H1.253v.003zm12.327-3.832c.295-.393.437-.813.418-1.246a1.959 1.959 0 0 0-.391-1.079c.196-.508.271-1.308-.383-1.929-.478-.455-1.292-.659-2.418-.602-.792.038-1.455.191-1.482.198h-.003c-.15.028-.31.062-.473.1-.012-.2.022-.7.377-1.823.422-1.336.397-2.358-.078-3.042C8.647.056 7.849 0 7.614 0a.744.744 0 0 0-.582.276c-.334.405-.295 1.151-.253 1.496-.397 1.11-1.511 3.833-2.454 4.59-.018.012-.033.028-.048.043a3.384 3.384 0 0 0-.59.922c-.178-.1-.38-.156-.597-.156H1.253C.56 7.17 0 7.757 0 8.476v5.097c0 .721.563 1.305 1.253 1.305H3.09c.268 0 .518-.088.723-.239l.708.088c.108.016 2.036.27 4.014.23.359.027.696.043 1.01.043.538 0 1.008-.044 1.4-.132.921-.204 1.55-.611 1.87-1.21a1.99 1.99 0 0 0 .205-1.202c.599-.565.704-1.189.683-1.628a2.195 2.195 0 0 0-.123-.63z" mask="url(#b)"/>
    </g>
</svg>
