<svg xmlns="http://www.w3.org/2000/svg"  viewBox="0 0 11 13">
    <g fill="#393939" fill-rule="nonzero">
        <path d="M9.899 1.53h-1.83V.404C8.069.176 7.876 0 7.637 0c-.024 0-.04.007-.047.015A.06.06 0 0 0 7.56 0H3.196c-.24 0-.425.176-.425.403V1.53H.934C.41 1.53 0 1.919 0 2.417V3.867h.81v8.254c0 .498.402.879.927.879h7.359c.525 0 .934-.38.934-.879V3.867h.803V2.417c0-.498-.409-.886-.934-.886zM3.792.543h3.791v.541H3.792V.542zm5.416 11.303c0 .05-.023.072-.078.072H1.703c-.055 0-.078-.022-.078-.072V3.792h7.583v8.053zm1.084-9.137H1.083v-.481c0-.038.024-.06.078-.06h9.053c.054 0 .078.022.078.06v.481z"/>
        <path d="M7.042 4.875h1.083v6.5H7.042zM4.875 4.875h1.083v6.5H4.875zM2.708 4.875h1.083v6.5H2.708z"/>
    </g>
</svg>
